<?xml version="1.0" encoding="UTF-8" standalone="no"?>
<!DOCTYPE svg PUBLIC "-//W3C//DTD SVG 1.1//EN" "http://www.w3.org/Graphics/SVG/1.1/DTD/svg11.dtd">
<svg width="100%" height="100%" viewBox="0 0 294 230" version="1.1" xmlns="http://www.w3.org/2000/svg" xmlns:xlink="http://www.w3.org/1999/xlink" xml:space="preserve" xmlns:serif="http://www.serif.com/" style="fill-rule:evenodd;clip-rule:evenodd;">
    <g id="Layer_2">
        <g>
            <g>
                <path d="M48.7,110.5C62.1,123.9 83.8,123.9 97.3,110.5C110.7,97.1 110.7,75.4 97.3,61.9C83.9,48.5 62.2,48.5 48.7,61.9C35.3,75.4 35.3,97.1 48.7,110.5ZM87.5,71.7C95.5,79.7 95.5,92.7 87.5,100.7C79.5,108.7 66.5,108.7 58.5,100.7C50.5,92.7 50.5,79.7 58.5,71.7C66.5,63.7 79.5,63.7 87.5,71.7Z" style="fill:none;fill-rule:nonzero;stroke:rgb(40,45,51);stroke-width:2px;"/>
                <path d="M48.7,110.5C48.9,110.7 49,110.8 49.2,110.9L59,101.1C58.8,101 58.7,100.8 58.5,100.7C50.5,92.7 50.5,79.7 58.5,71.7C61.2,69 64.4,67.2 67.8,66.4L64.2,53.1C58.5,54.6 53.1,57.6 48.7,62C35.3,75.4 35.3,97.1 48.7,110.5Z" style="fill:none;fill-rule:nonzero;stroke:rgb(40,45,51);stroke-width:2px;"/>
                <path d="M79.4,118.8L76.9,106.4C70.7,107.6 64,105.9 59,101.2L49.2,111C57.5,119 68.9,122 79.5,120L79.4,118.8Z" style="fill:none;fill-rule:nonzero;stroke:rgb(40,45,51);stroke-width:2px;"/>
            </g>
            <g>
                <rect x="3.6" y="28" width="11.3" height="14.1" style="fill:none;stroke:rgb(8,7,23);stroke-width:2px;"/>
                <rect x="22.2" y="9.1" width="11.3" height="33" style="fill:none;stroke:rgb(8,7,23);stroke-width:2px;"/>
                <rect x="40.8" y="18" width="11.3" height="24.1" style="fill:none;stroke:rgb(8,7,23);stroke-width:2px;"/>
                <rect x="59.4" y="1.4" width="11.3" height="40.6" style="fill:none;stroke:rgb(8,7,23);stroke-width:2px;"/>
                <path d="M0,42.1L76.7,42.1" style="fill:none;fill-rule:nonzero;stroke:rgb(8,7,23);stroke-width:2px;"/>
            </g>
            <g>
                <ellipse cx="66.1" cy="216.1" rx="49.9" ry="13.5" style="fill:rgb(8,7,23);"/>
                <g>
                    <g>
                        <path d="M159.3,130.2C159.3,130.2 164,137.7 150,141.4C135.6,145.2 128.6,142.6 126.5,140.7" style="fill:white;fill-rule:nonzero;"/>
                        <path d="M144.2,153.6C144.2,153.6 161.7,150.5 165.3,144.9C169.3,138.6 166.3,133.1 160,129" style="fill:white;fill-rule:nonzero;"/>
                        <path d="M141.5,166.7C141.5,166.7 151.9,164.7 157,161.1C164,156.1 165,147.3 163.8,147.3" style="fill:white;fill-rule:nonzero;"/>
                        <path d="M140.3,176C140.3,176 145.8,174.9 151,172C156.2,169.1 158.3,164.6 156.9,161.1" style="fill:white;fill-rule:nonzero;"/>
                        <path d="M142.7,125.3L122.8,128.4C113.4,129.8 104.9,134.9 99.2,142.4L91,153.1L37.1,218.7C32.9,222.4 44.6,223.7 54.8,226.1C54.8,226.1 75.1,229 80.3,223.2L114.1,185.6C114.1,185.6 130.6,187.4 142.9,181.6C150.5,178 150.8,172.1 150.8,172.1" style="fill:white;fill-rule:nonzero;"/>
                    </g>
                    <g transform="matrix(0.2653,-0.9642,0.9642,0.2653,66.418,198.433)">
                        <ellipse cx="163.4" cy="55.6" rx="51.9" ry="36" style="fill:none;stroke:rgb(27,27,27);stroke-width:5px;"/>
                    </g>
                    <g transform="matrix(0.2653,-0.9642,0.9642,0.2653,65.2915,195.634)">
                        <ellipse cx="161" cy="55" rx="51.9" ry="33.5" style="fill:none;stroke:rgb(8,7,23);stroke-width:5px;"/>
                    </g>
                    <path d="M140.6,191L157.7,120.4L140.1,116.1L123,186.7L128.5,189.9C132.1,192.1 136.6,192.4 140.6,191Z" style="fill:rgb(8,7,23);fill-rule:nonzero;stroke:rgb(27,27,27);stroke-width:2px;"/>
                    <path d="M147.7,120.2L151.5,104.6" style="fill:none;fill-rule:nonzero;stroke:rgb(8,7,23);stroke-width:5px;"/>
                    <path d="M161.1,129.7C161.1,129.2 167.3,133.5 167.9,137.3C169.1,144.8 164.2,146.1 164.2,146.1C164.2,146.1 166.2,155.6 157.1,161.2C156.3,161.7 158.6,167.2 151,172.9C149.4,174.1 151.1,178.9 140.8,183.1C125.3,189.3 110.7,185.3 110.7,185.3L120.8,137.8C120.8,137.8 133.9,144.7 143.8,142.5C157.7,139.3 161.2,134.7 161.1,129.7Z" style="fill:white;fill-rule:nonzero;"/>
                    <g>
                        <path d="M156.5,131C156.5,131 160.7,137.8 147.9,141.2C134.8,144.7 128.4,142.4 126.4,140.7" style="fill:none;fill-rule:nonzero;stroke:rgb(8,7,23);stroke-width:2px;stroke-linecap:round;stroke-linejoin:round;stroke-miterlimit:10;"/>
                        <path d="M144.2,153.6C144.2,153.6 161.7,150.5 165.3,144.9C169.3,138.6 166.4,131.7 157.8,127.6" style="fill:none;fill-rule:nonzero;stroke:rgb(8,7,23);stroke-width:2px;stroke-linecap:round;stroke-linejoin:round;stroke-miterlimit:10;"/>
                        <path d="M141.5,166.7C141.5,166.7 151.9,164.7 157,161.1C164,156.1 165,147.3 163.8,147.3" style="fill:none;fill-rule:nonzero;stroke:rgb(8,7,23);stroke-width:2px;stroke-linecap:round;stroke-linejoin:round;stroke-miterlimit:10;"/>
                        <path d="M140.3,176C140.3,176 145.8,174.9 151,172C156.2,169.1 158.3,164.6 156.9,161.1" style="fill:none;fill-rule:nonzero;stroke:rgb(8,7,23);stroke-width:2px;stroke-linecap:round;stroke-linejoin:round;stroke-miterlimit:10;"/>
                        <path d="M142.7,125.3L122.1,128.5C113.1,129.9 105,134.7 99.5,141.9L91,153.1L36.3,219.5C32.1,223.2 64.6,229.2 79,224.8L114.2,185.5C114.2,185.5 130.7,187.3 143,181.5C150.6,177.9 150.9,172 150.9,172" style="fill:none;fill-rule:nonzero;stroke:rgb(8,7,23);stroke-width:2px;stroke-linecap:round;stroke-linejoin:round;stroke-miterlimit:10;"/>
                    </g>
                </g>
            </g>
            <g>
                <g>
                    <g>
                        <path d="M105.2,0.9L104.5,0.8C104.7,0.8 105,0.8 105.2,0.9Z" style="fill:rgb(212,213,214);fill-rule:nonzero;"/>
                    </g>
                    <g>
                        <g>
                            <clipPath id="_clip1">
                                <path d="M101.7,3.7C101.4,3.6 101.1,3.6 100.8,3.5C101.6,2.6 102.4,1.7 103.3,0.8C103.4,0.7 103.5,0.6 103.6,0.5C103.9,0.6 104.2,0.6 104.5,0.7C103.6,1.7 102.6,2.7 101.7,3.7Z"/>
                            </clipPath>
                            <g clip-path="url(#_clip1)">
                                <path d="M104.6,0.7L101.9,3.7L101.8,3.7C101.5,3.6 101.2,3.6 100.8,3.5L103.5,0.5C103.8,0.6 104.1,0.6 104.5,0.7L104.6,0.7" style="fill:rgb(133,134,134);fill-rule:nonzero;"/>
                            </g>
                        </g>
                    </g>
                    <g>
                        <path d="M179.4,74.5L176.7,77.5L130.5,46.4L133.3,43.4L179.4,74.5Z" style="fill:rgb(173,173,174);fill-rule:nonzero;"/>
                    </g>
                    <g>
                        <path d="M133.3,43.4L130.5,46.4L128.5,16.3L131.2,13.3L133.3,43.4Z" style="fill:rgb(131,131,132);fill-rule:nonzero;"/>
                    </g>
                    <g>
                        <path d="M133.3,43.4L130.5,46.4L101.7,3.7L104.5,0.7L133.3,43.4Z" style="fill:rgb(37,145,113);fill-rule:nonzero;"/>
                    </g>
                    <g>
                        <path d="M104.5,0.7L133.3,43.4L179.4,74.5C180.3,87.3 168.9,90 152,82.8C146.9,80.6 141.2,77.5 135.3,73.5C125.2,66.7 115.6,58.2 107.8,49.4C96.2,36.6 88.3,23.1 87.2,13.2C87.2,12.9 87.1,12.6 87.1,12.3C86.4,2.6 92.2,-1.5 103.5,0.6C103.8,0.6 104.2,0.6 104.5,0.7Z" style="fill:rgb(0,27,255);fill-rule:nonzero;"/>
                    </g>
                    <g>
                        <path d="M104.5,0.7C104.2,0.6 103.9,0.6 103.5,0.5C103.8,0.6 104.2,0.6 104.5,0.7ZM104.5,0.7C104.9,0.8 105.3,0.9 105.8,1C105.6,1 105.4,0.9 105.2,0.9L104.5,0.7Z" style="fill:rgb(212,213,214);fill-rule:nonzero;"/>
                    </g>
                    <g>
                        <g>
                            <clipPath id="_clip2">
                                <path d="M104.5,0.7L105.1,1.6L105.7,0.9C105.3,0.9 104.9,0.8 104.5,0.7Z"/>
                            </clipPath>
                            <g clip-path="url(#_clip2)">
                                <path d="M105.7,1L103,4C102.6,3.9 102.2,3.8 101.8,3.7L104.5,0.7C105,0.8 105.3,0.9 105.7,1" style="fill:rgb(138,139,139);fill-rule:nonzero;"/>
                                <path d="M104.6,0.7L101.9,3.7L101.8,3.7C101.5,3.6 101.2,3.6 100.8,3.5L103.5,0.5C103.8,0.6 104.1,0.6 104.5,0.7L104.6,0.7" style="fill:rgb(133,134,134);fill-rule:nonzero;"/>
                            </g>
                        </g>
                    </g>
                    <g>
                        <path d="M131.2,13.3C156.7,30.5 178.2,57.9 179.4,74.6L133.3,43.5L131.2,13.3Z" style="fill:rgb(27,27,27);fill-rule:nonzero;"/>
                    </g>
                    <g>
                        <path d="M114.7,4C119.8,6.2 125.2,9.2 131.2,13.3L133.2,43.4L104.5,0.7C104.9,0.8 105.3,0.9 105.8,1C108.6,1.7 111.6,2.7 114.7,4Z" style="fill:rgb(178,176,169);fill-rule:nonzero;"/>
                    </g>
                    <g>
                        <path id="SVGID_5_" d="M84.4,15.2C84.1,11.2 85,8.1 86.8,6L89.5,3C87.6,5.1 86.8,8.1 87.1,12.2C87.1,12.5 87.1,12.8 87.2,13.1C88.3,23.1 96.3,36.6 107.8,49.4C115.7,58.2 125.2,66.6 135.3,73.5C141.2,77.5 146.9,80.6 152,82.8C163.7,87.8 172.7,88 176.9,83.4L174.2,86.4C170,91 161,90.7 149.3,85.8C144.2,83.6 138.5,80.5 132.6,76.5C122.5,69.7 112.9,61.2 105.1,52.4C93.5,39.6 85.5,26.1 84.4,16.2L84.4,15.2Z" style="fill:rgb(85,182,252);fill-rule:nonzero;"/>
                        <g>
                            <clipPath id="_clip3">
                                <path d="M84.4,15.2C84.1,11.2 85,8.1 86.8,6L89.5,3C87.6,5.1 86.8,8.1 87.1,12.2C87.1,12.5 87.1,12.8 87.2,13.1C88.3,23.1 96.3,36.6 107.8,49.4C115.7,58.2 125.2,66.6 135.3,73.5C141.2,77.5 146.9,80.6 152,82.8C163.7,87.8 172.7,88 176.9,83.4L174.2,86.4C170,91 161,90.7 149.3,85.8C144.2,83.6 138.5,80.5 132.6,76.5C122.5,69.7 112.9,61.2 105.1,52.4C93.5,39.6 85.5,26.1 84.4,16.2L84.4,15.2Z"/>
                            </clipPath>
                            <g clip-path="url(#_clip3)">
                                <path d="M176.9,83.5L174.2,86.5C172.7,88.1 170.6,89.1 168,89.5L170.7,86.5C173.3,86.1 175.4,85.1 176.9,83.5" style="fill:rgb(85,182,252);fill-rule:nonzero;"/>
                                <path d="M170.7,86.5L168,89.5C166.6,89.7 165.1,89.8 163.5,89.7L166.2,86.7C167.9,86.8 169.4,86.7 170.7,86.5" style="fill:rgb(85,182,252);fill-rule:nonzero;"/>
                                <path d="M166.2,86.7L163.5,89.7C162.1,89.6 160.7,89.4 159.2,89.1L161.9,86.1C163.4,86.4 164.9,86.6 166.2,86.7" style="fill:rgb(85,182,252);fill-rule:nonzero;"/>
                                <path d="M161.9,86.1L159.2,89.1C157.8,88.8 156.4,88.4 154.9,88L157.6,85C159.1,85.4 160.5,85.8 161.9,86.1" style="fill:rgb(85,182,252);fill-rule:nonzero;"/>
                                <path d="M157.6,84.9L154.9,87.9C153.5,87.4 151.9,86.9 150.4,86.3L153.1,83.3C154.6,83.9 156.1,84.5 157.6,84.9" style="fill:rgb(85,182,252);fill-rule:nonzero;"/>
                                <path d="M153.1,83.3L150.4,86.3C150,86.2 149.7,86 149.3,85.9C148.1,85.4 146.8,84.8 145.5,84.2L148.2,81.2C149.5,81.8 150.7,82.4 152,82.9C152.4,83 152.7,83.1 153.1,83.3" style="fill:rgb(85,182,252);fill-rule:nonzero;"/>
                                <path d="M148.2,81.1L145.5,84.1C143.7,83.2 141.9,82.2 140,81.2L142.7,78.2C144.6,79.3 146.4,80.2 148.2,81.1" style="fill:rgb(85,182,252);fill-rule:nonzero;"/>
                                <path d="M142.7,78.2L140,81.2C137.7,79.9 135.4,78.5 133,76.9L135.7,73.9C138.1,75.4 140.4,76.9 142.7,78.2" style="fill:rgb(85,182,252);fill-rule:nonzero;"/>
                                <path d="M135.7,73.8L133,76.8C132.9,76.7 132.7,76.6 132.6,76.5C122.5,69.7 112.9,61.2 105.1,52.4C104.6,51.8 104.1,51.3 103.6,50.7L106.3,47.7C106.8,48.3 107.3,48.8 107.8,49.4C115.7,58.2 125.2,66.6 135.3,73.5C135.4,73.6 135.6,73.7 135.7,73.8" style="fill:rgb(85,182,252);fill-rule:nonzero;"/>
                                <path d="M106.3,47.8L103.6,50.8C101.7,48.6 99.9,46.4 98.2,44.2L100.9,41.2C102.6,43.4 104.4,45.6 106.3,47.8" style="fill:rgb(85,182,252);fill-rule:nonzero;"/>
                                <path d="M100.9,41.2L98.2,44.2C96.8,42.4 95.5,40.6 94.3,38.8L97,35.8C98.2,37.6 99.5,39.4 100.9,41.2" style="fill:rgb(85,182,252);fill-rule:nonzero;"/>
                                <path d="M97,35.8L94.3,38.8C93.2,37.2 92.2,35.6 91.3,34L94,31C94.9,32.6 95.9,34.2 97,35.8" style="fill:rgb(85,182,252);fill-rule:nonzero;"/>
                                <path d="M94,31L91.3,34C90.4,32.5 89.6,31 88.8,29.5L91.5,26.5C92.3,27.9 93.1,29.4 94,31" style="fill:rgb(85,182,252);fill-rule:nonzero;"/>
                                <path d="M91.5,26.4L88.8,29.4C88.1,27.9 87.4,26.4 86.8,25L89.5,22C90.1,23.5 90.8,24.9 91.5,26.4" style="fill:rgb(85,182,252);fill-rule:nonzero;"/>
                                <path d="M89.5,22L86.8,25C86.2,23.5 85.7,21.9 85.3,20.5L88,17.5C88.4,19 88.9,20.5 89.5,22" style="fill:rgb(85,182,252);fill-rule:nonzero;"/>
                                <path d="M88,17.5L85.3,20.5C84.9,19 84.6,17.5 84.4,16.1C84.4,15.9 84.4,15.7 84.3,15.5L87,12.5C87,12.7 87,12.9 87.1,13.1C87.3,14.6 87.6,16 88,17.5" style="fill:rgb(85,182,252);fill-rule:nonzero;"/>
                                <path d="M87.1,12.5L84.4,15.5L84.4,15.2C84.1,11.2 85,8.1 86.8,6L89.5,3C87.6,5.1 86.8,8.1 87.1,12.2L87.1,12.5" style="fill:rgb(85,182,252);fill-rule:nonzero;"/>
                            </g>
                        </g>
                    </g>
                    <g>
                        <path id="SVGID_7_" d="M107.8,49.5L105.1,52.5C92.6,38.7 85.5,26 84.4,16.2L87.1,13.2C88.2,23 95.4,35.7 107.8,49.5Z" style="fill:rgb(85,182,252);fill-rule:nonzero;"/>
                        <g>
                            <clipPath id="_clip4">
                                <path d="M107.8,49.5L105.1,52.5C92.6,38.7 85.5,26 84.4,16.2L87.1,13.2C88.2,23 95.4,35.7 107.8,49.5Z"/>
                            </clipPath>
                            <g clip-path="url(#_clip4)">
                                <path d="M107.8,49.5L105.1,52.5C104.5,51.9 103.9,51.2 103.4,50.6L106.1,47.6C106.6,48.2 107.2,48.8 107.8,49.5" style="fill:rgb(85,182,252);fill-rule:nonzero;"/>
                                <path d="M106.1,47.5L103.4,50.5C101.4,48.2 99.5,45.9 97.8,43.6L100.5,40.6C102.2,42.9 104,45.2 106.1,47.5" style="fill:rgb(85,182,252);fill-rule:nonzero;"/>
                                <path d="M100.5,40.7L97.8,43.7C96.4,41.9 95.2,40.2 94,38.4L96.7,35.4C97.8,37.1 99.1,38.9 100.5,40.7" style="fill:rgb(85,182,252);fill-rule:nonzero;"/>
                                <path d="M96.7,35.4L94,38.4C93,36.9 92,35.3 91.1,33.8L93.8,30.8C94.7,32.3 95.6,33.9 96.7,35.4" style="fill:rgb(85,182,252);fill-rule:nonzero;"/>
                                <path d="M93.8,30.9L91.1,33.9C90.3,32.5 89.5,31 88.8,29.6L91.5,26.6C92.2,28 93,29.4 93.8,30.9" style="fill:rgb(85,182,252);fill-rule:nonzero;"/>
                                <path d="M91.5,26.6L88.8,29.6C88.1,28.2 87.5,26.8 86.9,25.4L89.6,22.4C90.1,23.7 90.8,25.2 91.5,26.6" style="fill:rgb(85,182,252);fill-rule:nonzero;"/>
                                <path d="M89.6,22.4L86.9,25.4C86.3,23.9 85.8,22.4 85.4,20.9L88.1,17.9C88.5,19.3 89,20.8 89.6,22.4" style="fill:rgb(85,182,252);fill-rule:nonzero;"/>
                                <path d="M88.1,17.9L85.4,20.9C85,19.3 84.6,17.7 84.5,16.2L87.2,13.2C87.3,14.7 87.6,16.3 88.1,17.9" style="fill:rgb(85,182,252);fill-rule:nonzero;"/>
                            </g>
                        </g>
                    </g>
                    <g>
                        <path d="M87.2,13.2C88,20.2 92.1,28.9 98.5,37.9L97.4,36.4C91.4,27.7 87.9,19.8 87.2,13.2Z" style="fill:rgb(212,213,214);fill-rule:nonzero;"/>
                    </g>
                    <g>
                        <path d="M103.4,44.3C101.2,41.6 99.1,38.9 97.4,36.3L98.5,37.8C99.9,39.8 101.4,41.8 103.1,43.8L103.4,44.3Z" style="fill:rgb(255,151,0);fill-rule:nonzero;"/>
                    </g>
                    <g>
                        <path d="M107.8,49.5C106.2,47.8 104.8,46.1 103.4,44.4L103,43.9C104.5,45.7 106.1,47.6 107.8,49.5Z" style="fill:rgb(255,151,0);fill-rule:nonzero;"/>
                    </g>
                </g>
            </g>
            <g>
                <g>
                    <path d="M177.2,141.7L177.2,124.2L184.6,124.2L184.6,141.7" style="fill:none;fill-rule:nonzero;stroke:rgb(8,7,23);stroke-width:2px;stroke-linecap:round;stroke-linejoin:round;stroke-miterlimit:10;"/>
                    <path d="M195.1,141.7L195.1,99.6L202.6,99.6L202.6,141.7" style="fill:none;fill-rule:nonzero;stroke:rgb(8,7,23);stroke-width:2px;stroke-linecap:round;stroke-linejoin:round;stroke-miterlimit:10;"/>
                    <path d="M213,141.7L213,85L220.5,85L220.5,141.7" style="fill:none;fill-rule:nonzero;stroke:rgb(8,7,23);stroke-width:2px;stroke-linecap:round;stroke-linejoin:round;stroke-miterlimit:10;"/>
                    <path d="M231,141.7L231,116.1L238.5,116.1L238.5,141.7" style="fill:none;fill-rule:nonzero;stroke:rgb(8,7,23);stroke-width:2px;stroke-linecap:round;stroke-linejoin:round;stroke-miterlimit:10;"/>
                    <path d="M248.9,141.7L248.9,90.8L256.4,90.8L256.4,141.7" style="fill:none;fill-rule:nonzero;stroke:rgb(8,7,23);stroke-width:2px;stroke-linecap:round;stroke-linejoin:round;stroke-miterlimit:10;"/>
                    <path d="M266.9,141.7L266.9,110.7L274.4,110.7L274.4,141.7" style="fill:none;fill-rule:nonzero;stroke:rgb(8,7,23);stroke-width:2px;stroke-linecap:round;stroke-linejoin:round;stroke-miterlimit:10;"/>
                    <path d="M284.8,141.7L284.8,124.2L292.3,124.2L292.3,141.7" style="fill:none;fill-rule:nonzero;stroke:rgb(8,7,23);stroke-width:2px;stroke-linecap:round;stroke-linejoin:round;stroke-miterlimit:10;"/>
                </g>
            </g>
        </g>
    </g>
</svg>
